<svg width="573.239990234375px" height="408.67999267578125px" xmlns="http://www.w3.org/2000/svg" viewBox="-36.6199951171875 -129.33999633789062 573.239990234375 408.67999267578125" style="background: rgba(0, 0, 0, 0) none repeat scroll 0% 0%;" preserveAspectRatio="xMidYMid"><defs><filter id="editing-hole" x="-100%" y="-100%" width="300%" height="300%"><feFlood flood-color="#000000" result="black"></feFlood><feMorphology operator="dilate" radius="2" in="SourceGraphic" result="erode"></feMorphology><feGaussianBlur in="erode" stdDeviation="4" result="blur"></feGaussianBlur><feOffset in="blur" dx="2" dy="2" result="offset"></feOffset><feComposite operator="atop" in="offset" in2="black" result="merge"></feComposite><feComposite operator="in" in="merge" in2="SourceGraphic" result="inner-shadow"></feComposite></filter></defs><g filter="url(#editing-hole)"><g transform="translate(118.20000076293945, 202.0999984741211)"><path d="M-54 91L-54 91L-54 91Q-54 91.80-53.40 91.80L-53.40 91.80L-53.40 91.80Q-47.60 91.80-15.70 56.90L-15.70 56.90L-15.70 56.90Q16.20 22 52.80-23.60L52.80-23.60L52.80-23.60Q22.40-3.40-3.60 19.40L-3.60 19.40L-3.60 19.40Q-34.60 46.20-47 68.40L-47 68.40L-47 68.40Q-54 81-54 91ZM-58.20 96.20L-58.20 96.20L-58.20 96.20Q-60.20 96.20-60.20 93.60L-60.20 93.60L-60.20 93.60Q-60.20 80.20-49.10 63.40L-49.10 63.40L-49.10 63.40Q-38 46.60-19.60 30L-19.60 30L-19.60 30Q14-0.80 56.80-28.40L56.80-28.40L56.80-28.40Q89.40-69.40 110.50-100.70L110.50-100.70L110.50-100.70Q131.60-132 131.60-141.80L131.60-141.80L131.60-141.80Q131.60-144.80 130.70-145.40L130.70-145.40L130.70-145.40Q129.80-146 126.40-146L126.40-146L126.40-146Q111.40-146 89.90-134.50L89.90-134.50L89.90-134.50Q68.40-123 50.20-107.70L50.20-107.70L50.20-107.70Q32-92.40 19-76.40L19-76.40L19-76.40Q6-60.40 6-51.80L6-51.80L6-51.80Q6-44.40 15.60-44.40L15.60-44.40L15.60-44.40Q25.20-44.40 40.60-52.40L40.60-52.40L40.60-52.40Q56-60.40 66.80-68.40L66.80-68.40L77.80-76.40L79.60-76L79.60-76Q66.40-64.40 48.40-54L48.40-54L48.40-54Q40.80-49.60 31.10-45.90L31.10-45.90L31.10-45.90Q21.40-42.20 14.20-42.20L14.20-42.20L14.20-42.20Q2.40-42.20 2.40-52.20L2.40-52.20L2.40-52.20Q2.40-62.20 13.80-78.50L13.80-78.50L13.80-78.50Q25.20-94.80 42.40-110.50L42.40-110.50L42.40-110.50Q59.60-126.20 82.60-137.60L82.60-137.60L82.60-137.60Q105.60-149 125.80-149L125.80-149L125.80-149Q130.80-149 132.40-147L132.40-147L132.40-147Q134-145 134-140L134-140L134-140Q134-114.20 76.20-40.40L76.20-40.40L76.20-40.40Q90.20-49 91.50-49L91.50-49L91.50-49Q92.80-49 92.80-48.40L92.80-48.40L92.80-48.40Q92.80-47.80 92-47.20L92-47.20L92-47.20Q86.60-44.80 73.20-36.60L73.20-36.60L73.20-36.60Q34.40 12.20-7 54.20L-7 54.20L-7 54.20Q-48.40 96.20-58.20 96.20ZM203-59.20L203-59.20L203-59.20Q194.40-59.20 182.60-49.80L182.60-49.80L182.60-49.80Q193.20-42.60 203.60-42.60L203.60-42.60L203.60-42.60Q207.80-42.60 210.20-45.10L210.20-45.10L210.20-45.10Q212.60-47.60 212.60-50.90L212.60-50.90L212.60-50.90Q212.60-54.20 210.10-56.70L210.10-56.70L210.10-56.70Q207.60-59.20 203-59.20ZM80.80-4.40L80.80-4.40L80.80-4.40Q80.80-19 96.00-38.70L96.00-38.70L96.00-38.70Q111.20-58.40 133.60-69.40L133.60-69.40L133.60-69.40Q126.40-67.60 121.40-67.60L121.40-67.60L121.40-67.60Q105.60-67.60 105.60-79L105.60-79L105.60-79Q105.60-87 113.70-97.90L113.70-97.90L113.70-97.90Q121.80-108.80 134.60-118.90L134.60-118.90L134.60-118.90Q147.40-129 165.80-136L165.80-136L165.80-136Q184.20-143 202.40-143L202.40-143L202.40-143Q210.80-143 210.80-138.80L210.80-138.80L210.80-138.80Q210.80-132.80 196.60-123.40L196.60-123.40L196.60-123.40Q182.40-114 172.80-114L172.80-114L172.80-114Q170-114 170-117.10L170-117.10L170-117.10Q170-120.20 174.20-123.70L174.20-123.70L174.20-123.70Q178.40-127.20 179.50-127.20L179.50-127.20L179.50-127.20Q180.60-127.20 180.60-126.30L180.60-126.30L180.60-126.30Q180.60-125.40 178.70-124.20L178.70-124.20L178.70-124.20Q176.80-123 176.80-122.10L176.80-122.10L176.80-122.10Q176.80-121.20 177.60-121.20L177.60-121.20L177.60-121.20Q182.80-121.20 195-128.90L195-128.90L195-128.90Q207.20-136.60 207.20-139.80L207.20-139.80L207.20-139.80Q207.20-141.20 204.60-141.20L204.60-141.20L204.60-141.20Q188.40-141.20 171.10-133.60L171.10-133.60L171.10-133.60Q153.80-126 141.40-115.50L141.40-115.50L141.40-115.50Q129-105 120.90-94.20L120.90-94.20L120.90-94.20Q112.80-83.40 112.80-76.60L112.80-76.60L112.80-76.60Q112.80-69.80 121.00-69.80L121.00-69.80L121.00-69.80Q137.40-69.80 157.60-83.20L157.60-83.20L157.60-83.20Q160.60-85 163.70-87.10L163.70-87.10L163.70-87.10Q166.80-89.20 167.50-89.70L167.50-89.70L167.50-89.70Q168.20-90.20 168.80-90.20L168.80-90.20L168.80-90.20Q169.40-90.20 169.40-88.60L169.40-88.60L169.40-88L169.40-88Q169.40-86.20 154-77.20L154-77.20L148.80-74L148.80-74Q125.60-63 105.90-39.60L105.90-39.60L105.90-39.60Q86.20-16.20 86.20-2.60L86.20-2.60L86.20-2.60Q86.20 5.80 95.20 5.80L95.20 5.80L95.20 5.80Q103.00 5.80 114.70-0.30L114.70-0.30L114.70-0.30Q126.40-6.40 138.80-16L138.80-16L138.80-16Q161-33.40 174.60-46.60L174.60-46.60L174.60-46.60Q174-47 171.50-49.10L171.50-49.10L171.50-49.10Q169-51.20 168-51.90L168-51.90L168-51.90Q167-52.60 164.80-54L164.80-54L164.80-54Q161-56 155.20-56L155.20-56L155.20-56Q141.60-56 130-44L130-44L130-44Q118.40-32 118.40-24.40L118.40-24.40L118.40-24.40Q118.40-22 120.40-22L120.40-22L120.40-22Q126.00-22 134.10-30.60L134.10-30.60L134.10-30.60Q142.20-39.20 145.40-46.80L145.40-46.80L145.40-46.80Q146.40-48.60 146.80-48.60L146.80-48.60L146.80-48.60Q148-48.60 148-47.60L148-47.60L148-47.60Q148-42 136.90-30.30L136.90-30.30L136.90-30.30Q125.80-18.60 118.00-18.60L118.00-18.60L118.00-18.60Q112.40-18.60 112.40-23.60L112.40-23.60L112.40-23.60Q112.40-33.40 127.80-46.70L127.80-46.70L127.80-46.70Q143.20-60 162-60L162-60L162-60Q166.80-60 169.50-58.50L169.50-58.50L169.50-58.50Q172.20-57 173-56.60L173-56.60L173-56.60Q173.80-56.20 176.80-54L176.80-54L176.80-54Q179.80-51.80 180-51.60L180-51.60L180-51.60Q193.40-63 204.40-63L204.40-63L204.40-63Q210.20-63 213.70-59.80L213.70-59.80L213.70-59.80Q217.20-56.60 217.20-51.70L217.20-51.70L217.20-51.70Q217.20-46.80 212.00-43L212.00-43L212.00-43Q206.80-39.20 195.90-39.20L195.90-39.20L195.90-39.20Q185-39.20 177.20-44.80L177.20-44.80L177.20-44.80Q162.40-30.40 145.20-17L145.20-17L145.20-17Q112.00 9.20 95.00 9.20L95.00 9.20L95.00 9.20Q80.80 9.20 80.80-4.40ZM341.20-153.40L341.20-153.40L341.20-153.40Q341.20-155.20 339.20-155.20L339.20-155.20L339.20-155.20Q331.40-155.20 302.80-125.20L302.80-125.20L302.80-125.20Q316.40-127.60 328.80-137.80L328.80-137.80L328.80-137.80Q341.20-148 341.20-153.40ZM290.80-49.80L290.80-49.80L240.80-51L239.60-51L239.60-51Q198.60 1 198.60 7.60L198.60 7.60L198.60 7.60Q198.60 8.20 199.10 8.20L199.10 8.20L199.10 8.20Q199.60 8.20 200.30 7.80L200.30 7.80L200.30 7.80Q201.00 7.40 201.90 6.90L201.90 6.90L201.90 6.90Q202.80 6.40 203.40 6L203.40 6L203.40 6Q204.00 5.60 204.20 5.60L204.20 5.60L204.20 5.60Q204.40 5.60 204.40 6.20L204.40 6.20L204.40 6.20Q204.40 8.40 197.50 13.40L197.50 13.40L197.50 13.40Q190.60 18.40 188.00 18.40L188.00 18.40L188.00 18.40Q184.80 18.40 184.80 14L184.80 14L184.80 14Q184.80 9.60 197.10-8.60L197.10-8.60L197.10-8.60Q209.40-26.80 228.80-51L228.80-51L187.60-50.80L187.60-50.80Q185.00-50.80 185.00-52.20L185.00-52.20L185.00-52.20Q185.00-54.60 187.60-56L187.60-56L187.60-56Q190.20-57.40 193.40-57.40L193.40-57.40L193.40-57.40Q210.60-57.40 233.00-56.20L233.00-56.20L233.00-56.20Q263-93.20 291.80-122.40L291.80-122.40L291.80-122.40Q280.20-122.60 270.90-126.10L270.90-126.10L270.90-126.10Q261.60-129.60 256.60-133.60L256.60-133.60L256.60-133.60Q243.00-144.40 230.10-144.40L230.10-144.40L230.10-144.40Q217.20-144.40 205.60-132.40L205.60-132.40L205.60-132.40Q194.00-120.40 194.00-112.80L194.00-112.80L194.00-112.80Q194.00-110.40 196.00-110.40L196.00-110.40L196.00-110.40Q201.60-110.40 209.70-119L209.70-119L209.70-119Q217.80-127.60 221.00-135.20L221.00-135.20L221.00-135.20Q221.80-137 222.40-137L222.40-137L222.40-137Q223.60-137 223.60-136L223.60-136L223.60-136Q223.60-130.40 212.50-118.70L212.50-118.70L212.50-118.70Q201.40-107 193.60-107L193.60-107L193.60-107Q188.00-107 188.00-112L188.00-112L188.00-112Q188.00-121.80 203.40-135.10L203.40-135.10L203.40-135.10Q218.80-148.40 237.60-148.40L237.60-148.40L237.60-148.40Q244.00-148.40 253.60-143.10L253.60-143.10L253.60-143.10Q263.20-137.80 274.30-131.80L274.30-131.80L274.30-131.80Q285.40-125.80 294.40-124.80L294.40-124.80L294.40-124.80Q328-158 340-158L340-158L340-158Q344.80-158 344.80-154.40L344.80-154.40L344.80-154.40Q344.80-147.40 330.90-136.50L330.90-136.50L330.90-136.50Q317-125.60 300.80-123L300.80-123L300.80-123Q276-96.60 243.40-55.80L243.40-55.80L243.40-55.80Q265.20-54.80 291.20-52.80L291.20-52.80L291.20-52.80Q295-52.80 295.40-51.40L295.40-51.40L295.40-51.40Q295.40-49.80 290.80-49.80Z" fill="#ccc"></path></g></g><style>text {
  font-size: 200px;
  font-family: Arial Black;
  dominant-baseline: central;
  text-anchor: middle;
}</style></svg>